# xmcd
#
# Track frame offsets:
#       150
#       16007
#       33818
#       47234
#       62061
#       79353
#       94036
#       109570
#       124314
#       139820
#       155528
#       169641
#       184912
#       201599
#       218204
#       232206
#       248509
#       262631
#       281409
#       298553
#       325070
#       342181
#
# Disc length: 4799 seconds
#
# Revision: 0
# Processed by: cddbd v1.5.2PL0 Copyright (c) Steve Scherf et al.
# Submitted via: WaveLab 4.01
#
DISCID=3a12bd16
DTITLE=Cover hypes - Compilation
DYEAR=2007
DGENRE=Dance
TTITLE0=Sean Finn and Gino Montesano - Sunglasses at night
TTITLE1=Prezioso and Marvin - Touch me (Eddie Thoneik edit)
TTITLE2=Alex Gaudino feat. Crystal Waters - Destination Calabria
TTITLE3=Mega-Mania - Summer of 69 (Rave Allstars remix edit)
TTITLE4=Apollo - Dance 2007 (Megara vs. Dj Lee remix edit)
TTITLE5=Crew 7 - Such a shame
TTITLE6=Naski vs. Brunner feat. Marcie - Somewhere over the rainbow
TTITLE7=Kash vs. Inxs - Dream on black girl
TTITLE8=Yanou - Sun is shining (Spencer and Hill edit)
TTITLE9=David Vendetta - Love to love you baby
TTITLE10=Dennis Christopher - Sign your name
TTITLE11=Italobrothers - Moonlight shadow
TTITLE12=Jan Wayne and Scarlet - I touch myself
TTITLE13=Electra - Something
TTITLE14=Backside Artists vs. Green Plank - Sonic empire 2007
TTITLE15=Katiana - Into the groove
TTITLE16=Neodisco - Preacher man
TTITLE17=Dj Vini We will rock you
TTITLE18=Antoine Clamaran - Rapper's delight
TTITLE19=Disco Babes Heaven (Pikkos elektro heaven)
TTITLE20=Dan Winter and Mayth - Dare me (Discotronic remix edit)
TTITLE21=Datura vs. MNS - Infinity (Dj MNS vs. E-(shit)Maxx remix)
EXTD=
EXTT0=
EXTT1=
EXTT2=
EXTT3=
EXTT4=
EXTT5=
EXTT6=
EXTT7=
EXTT8=
EXTT9=
EXTT10=
EXTT11=
EXTT12=
EXTT13=
EXTT14=
EXTT15=
EXTT16=
EXTT17=
EXTT18=
EXTT19=
EXTT20=
EXTT21=
PLAYORDER=
